<?xml version="1.0" encoding="UTF-8" standalone="no"?>
<!-- Created with Inkscape (http://www.inkscape.org/) -->

<svg
   width="267mm"
   height="239mm"
   viewBox="0 0 267 239"
   version="1.1"
   id="svg2851"
   inkscape:version="1.2 (dc2aedaf03, 2022-05-15)"
   sodipodi:docname="logo_1.svg"
   xmlns:inkscape="http://www.inkscape.org/namespaces/inkscape"
   xmlns:sodipodi="http://sodipodi.sourceforge.net/DTD/sodipodi-0.dtd"
   xmlns="http://www.w3.org/2000/svg"
   xmlns:svg="http://www.w3.org/2000/svg">
  <sodipodi:namedview
     id="namedview2853"
     pagecolor="#ffffff"
     bordercolor="#000000"
     borderopacity="0.25"
     inkscape:showpageshadow="2"
     inkscape:pageopacity="0.0"
     inkscape:pagecheckerboard="0"
     inkscape:deskcolor="#d1d1d1"
     inkscape:document-units="mm"
     showgrid="false"
     inkscape:zoom="0.125"
     inkscape:cx="-784"
     inkscape:cy="684"
     inkscape:window-width="1920"
     inkscape:window-height="991"
     inkscape:window-x="-9"
     inkscape:window-y="-9"
     inkscape:window-maximized="1"
     inkscape:current-layer="layer1" />
  <defs
     id="defs2848" />
  <g
     inkscape:label="Layer 1"
     inkscape:groupmode="layer"
     id="layer1">
    <g
       id="g2830"
       transform="matrix(9.3005973,0,0,9.3005973,-583.56379,-2483.112)"
       style="fill:#ffffff">
      <path
         id="path983"
         style="fill:#ffffff;stroke:none;stroke-width:0.264583;stroke-linecap:round;stroke-dasharray:none"
         d="M 73.00949 266.98631 C 72.636717 266.98431 72.333663 267.0941 72.042091 267.44003 C 71.109063 268.54702 70.081013 274.95169 70.081013 274.95169 C 67.013091 274.79355 64.194557 276.32992 64.194557 276.32992 C 67.708359 278.35862 77.098667 278.47708 77.098667 278.47708 C 77.098667 278.47708 86.488975 278.35862 90.002777 276.32992 C 90.002777 276.32992 87.184242 274.79355 84.11632 274.95169 C 84.11632 274.95169 83.088215 268.54702 82.155186 267.44003 C 81.222159 266.33305 80.170528 267.64531 77.098667 267.2974 C 74.986763 267.53659 73.82959 266.99098 73.00949 266.98631 z M 77.710354 270.30956 C 77.744245 270.31065 77.783027 270.31881 77.826758 270.33412 L 77.997334 270.39318 C 78.084795 270.42379 78.139434 270.46533 78.161299 270.51781 C 78.187537 270.56591 78.185354 270.6337 78.154743 270.72116 L 76.691949 274.97175 C 76.665711 275.05921 76.626355 275.11385 76.573879 275.13572 C 76.525776 275.16195 76.457981 275.15977 76.37052 275.12916 L 76.199999 275.0701 C 76.112539 275.03949 76.05566 274.99795 76.029422 274.94547 C 76.007557 274.89737 76.011979 274.83181 76.042591 274.74872 L 77.505329 270.49158 C 77.53594 270.40849 77.575296 270.3538 77.623399 270.32756 C 77.64745 270.31444 77.676463 270.30846 77.710354 270.30956 z M 75.294386 270.91124 C 75.301219 270.91077 75.307885 270.91081 75.314444 270.91136 C 75.371293 270.91573 75.430355 270.95508 75.491577 271.02943 L 75.603091 271.16061 C 75.664314 271.23058 75.690514 271.29401 75.681768 271.35085 C 75.677395 271.40333 75.640222 271.46021 75.570254 271.52143 L 74.448614 272.47255 C 74.374272 272.53815 74.3371 272.61031 74.3371 272.68902 C 74.3371 272.77211 74.374272 272.84427 74.448614 272.90549 L 75.576866 273.85006 C 75.646834 273.91128 75.684007 273.9681 75.68838 274.02058 C 75.692753 274.07743 75.664314 274.14085 75.603091 274.21082 L 75.491577 274.34201 C 75.434728 274.41197 75.37785 274.45133 75.321001 274.46008 C 75.264151 274.46445 75.200778 274.43601 75.13081 274.37479 L 73.372813 272.90549 C 73.298472 272.84427 73.261299 272.77211 73.261299 272.68902 C 73.261299 272.60593 73.298472 272.53377 73.372813 272.47255 L 75.13081 270.99664 C 75.192032 270.94307 75.246556 270.91459 75.294386 270.91124 z M 78.904448 270.91124 C 78.955626 270.91459 79.011857 270.94307 79.07308 270.99664 L 80.824465 272.47255 C 80.898806 272.53377 80.935979 272.60593 80.935979 272.68902 C 80.935979 272.77211 80.90099 272.84427 80.831021 272.90549 L 79.066523 274.37479 C 78.996555 274.43601 78.933127 274.46445 78.876277 274.46008 C 78.823801 274.45133 78.766978 274.41197 78.705756 274.34201 L 78.594242 274.21082 C 78.53302 274.14085 78.506764 274.07743 78.51551 274.02058 C 78.519883 273.9681 78.557056 273.91128 78.627024 273.85006 L 79.755276 272.90549 C 79.825244 272.84427 79.860233 272.77211 79.860233 272.68902 C 79.860233 272.61031 79.823061 272.53815 79.74872 272.47255 L 78.627024 271.52143 C 78.557056 271.46021 78.519883 271.40333 78.51551 271.35085 C 78.511137 271.29401 78.537393 271.23058 78.594242 271.16061 L 78.712313 271.02943 C 78.769162 270.95508 78.825984 270.91573 78.882834 270.91136 C 78.88994 270.91081 78.897136 270.91077 78.904448 270.91124 z " />
      <path
         style="fill:#ffffff;stroke:none;stroke-width:0.264583;stroke-linecap:round;stroke-dasharray:none"
         d="m 70.302575,278.95252 -3.684675,0.79932 1.850244,6.25375 -5.708874,0.68 c 0,0 5.171196,5.26608 12.635433,5.66144 l -1.265125,-4.55445 -2.767461,-0.56931 -1.375823,-6.23074 h -0.790703 v -0.60093 l 1.381932,0.0158 c 0,0 0.357614,-0.99628 -0.274948,-1.45489 z"
         id="path1039" />
      <path
         id="path1041"
         style="fill:#ffffff;stroke:none;stroke-width:0.264583;stroke-linecap:round;stroke-dasharray:none"
         d="m 71.417863,279.40517 c 0,0 0.425009,3.67898 2.079976,5.66942 1.65497,1.99043 3.600814,1.72186 3.600814,1.72186 0,0 1.945845,0.26857 3.600814,-1.72186 1.654967,-1.99044 2.079976,-5.66942 2.079976,-5.66942 z"
         sodipodi:nodetypes="cscscc" />
      <path
         id="path1043"
         style="fill:#ffffff;stroke:none;stroke-width:0.264583;stroke-linecap:round;stroke-dasharray:none"
         d="m 74.999556,286.93856 1.699638,5.74073 h 0.798918 l 1.700155,-5.74073 c 0,0 -0.462667,0.3794 -1.281059,0.42685 l -0.818555,2.94142 -0.818555,-2.94142 c -0.818392,-0.0474 -1.280542,-0.42685 -1.280542,-0.42685 z"
         sodipodi:nodetypes="cccccccc" />
      <path
         style="fill:#ffffff;stroke:none;stroke-width:0.264583;stroke-linecap:round;stroke-dasharray:none"
         d="m 83.894789,278.95252 3.684675,0.79932 -1.850244,6.25375 5.708874,0.68 c 0,0 -5.171196,5.26608 -12.635433,5.66144 l 1.265125,-4.55445 2.767461,-0.56931 1.375823,-6.23074 h 0.790703 v -0.60093 l -1.381932,0.0158 c 0,0 -0.357614,-0.99628 0.274948,-1.45489 z"
         id="path1053" />
    </g>
  </g>
</svg>
